<svg width="412" height="177" viewBox="0 0 412 177" fill="none" xmlns="http://www.w3.org/2000/svg">
<path d="M412 177C412 130.057 390.296 85.036 351.664 51.8421C313.032 18.6482 260.635 3.54412e-06 206 0C151.365 -3.54412e-06 98.9685 18.6482 60.336 51.8421C21.7035 85.036 8.24959e-06 130.057 0 177L412 177Z" fill="#1B9446"/>
<path d="M26 135.426H31.825L45.5216 161.281H45.9939L59.6906 135.426H65.5156V166.574H60.95V142.909H60.5564L47.9618 166.574H43.5537L30.9591 142.909H30.5655V166.574H26V135.426Z" fill="white"/>
<path d="M81.3873 166.574H76.2707L91.0694 135.426H96.1072L110.906 166.574H105.789L93.7457 140.354H93.4309L81.3873 166.574ZM83.2765 154.407H103.9V157.753H83.2765V154.407Z" fill="white"/>
<path d="M152.154 145.16H147.273C146.985 144.075 146.48 143.122 145.758 142.3C145.05 141.479 144.184 140.79 143.161 140.232C142.15 139.664 141.029 139.238 139.795 138.954C138.562 138.67 137.277 138.529 135.938 138.529C133.498 138.529 131.288 139.005 129.306 139.958C127.339 140.911 125.771 142.316 124.603 144.171C123.449 146.027 122.871 148.303 122.871 151C122.871 153.697 123.449 155.973 124.603 157.829C125.771 159.684 127.339 161.089 129.306 162.042C131.288 162.995 133.498 163.471 135.938 163.471C137.277 163.471 138.562 163.33 139.795 163.046C141.029 162.762 142.15 162.341 143.161 161.783C144.184 161.215 145.05 160.521 145.758 159.7C146.48 158.868 146.985 157.915 147.273 156.84H152.154C151.787 158.432 151.117 159.857 150.147 161.114C149.176 162.371 147.969 163.441 146.526 164.323C145.083 165.195 143.462 165.859 141.665 166.316C139.881 166.772 137.972 167 135.938 167C132.501 167 129.444 166.351 126.768 165.053C124.092 163.755 121.986 161.91 120.451 159.517C118.916 157.124 118.148 154.285 118.148 151C118.148 147.715 118.916 144.876 120.451 142.483C121.986 140.09 124.092 138.245 126.768 136.947C129.444 135.649 132.501 135 135.938 135C137.972 135 139.881 135.228 141.665 135.684C143.462 136.141 145.083 136.81 146.526 137.692C147.969 138.564 149.176 139.629 150.147 140.886C151.117 142.133 151.787 143.558 152.154 145.16Z" fill="white"/>
<path d="M164.474 166.574V135.426H169.354V149.297H190.843V135.426H195.724V166.574H190.843V152.643H169.354V166.574H164.474Z" fill="white"/>
<path d="M214.808 135.426V166.574H209.928V135.426H214.808Z" fill="white"/>
<path d="M229.027 166.574V135.426H233.907V150.878H234.38L252.484 135.426H258.86L241.936 149.479L258.86 166.574H252.957L238.945 152.095L233.907 156.475V166.574H229.027Z" fill="white"/>
<path d="M301.722 151C301.722 154.285 300.955 157.124 299.42 159.517C297.885 161.91 295.779 163.755 293.103 165.053C290.426 166.351 287.369 167 283.932 167C280.495 167 277.438 166.351 274.762 165.053C272.085 163.755 269.98 161.91 268.445 159.517C266.91 157.124 266.142 154.285 266.142 151C266.142 147.715 266.91 144.876 268.445 142.483C269.98 140.09 272.085 138.245 274.762 136.947C277.438 135.649 280.495 135 283.932 135C287.369 135 290.426 135.649 293.103 136.947C295.779 138.245 297.885 140.09 299.42 142.483C300.955 144.876 301.722 147.715 301.722 151ZM296.999 151C296.999 148.303 296.415 146.027 295.248 144.171C294.093 142.316 292.525 140.911 290.544 139.958C288.576 139.005 286.372 138.529 283.932 138.529C281.492 138.529 279.281 139.005 277.3 139.958C275.332 140.911 273.765 142.316 272.597 144.171C271.443 146.027 270.865 148.303 270.865 151C270.865 153.697 271.443 155.973 272.597 157.829C273.765 159.684 275.332 161.089 277.3 162.042C279.281 162.995 281.492 163.471 283.932 163.471C286.372 163.471 288.576 162.995 290.544 162.042C292.525 161.089 294.093 159.684 295.248 157.829C296.415 155.973 296.999 153.697 296.999 151Z" fill="white"/>
<path d="M310.48 138.772V135.426H340.707V138.772H328.033V166.574H323.153V138.772H310.48Z" fill="white"/>
<path d="M385 151C385 154.285 384.233 157.124 382.698 159.517C381.163 161.91 379.057 163.755 376.381 165.053C373.704 166.351 370.647 167 367.21 167C363.773 167 360.716 166.351 358.04 165.053C355.363 163.755 353.258 161.91 351.723 159.517C350.188 157.124 349.42 154.285 349.42 151C349.42 147.715 350.188 144.876 351.723 142.483C353.258 140.09 355.363 138.245 358.04 136.947C360.716 135.649 363.773 135 367.21 135C370.647 135 373.704 135.649 376.381 136.947C379.057 138.245 381.163 140.09 382.698 142.483C384.233 144.876 385 147.715 385 151ZM380.277 151C380.277 148.303 379.693 146.027 378.526 144.171C377.371 142.316 375.803 140.911 373.822 139.958C371.854 139.005 369.65 138.529 367.21 138.529C364.77 138.529 362.559 139.005 360.578 139.958C358.61 140.911 357.043 142.316 355.875 144.171C354.72 146.027 354.143 148.303 354.143 151C354.143 153.697 354.72 155.973 355.875 157.829C357.043 159.684 358.61 161.089 360.578 162.042C362.559 162.995 364.77 163.471 367.21 163.471C369.65 163.471 371.854 162.995 373.822 162.042C375.803 161.089 377.371 159.684 378.526 157.829C379.693 155.973 380.277 153.697 380.277 151Z" fill="white"/>
</svg>
